<svg width="358" height="240" viewBox="58 26 358 240" fill="none" xmlns="http://www.w3.org/2000/svg" role="img" aria-label="Nufaa">
  <defs>
    <linearGradient id="nufaaGreenLeft" x1="80" y1="252" x2="130" y2="68" gradientUnits="userSpaceOnUse">
      <stop offset="0" stop-color="#176a32"/>
      <stop offset="0.55" stop-color="#43a747"/>
      <stop offset="1" stop-color="#8cc63f"/>
    </linearGradient>
    <linearGradient id="nufaaGreenRight" x1="300" y1="68" x2="250" y2="252" gradientUnits="userSpaceOnUse">
      <stop offset="0" stop-color="#176a32"/>
      <stop offset="0.55" stop-color="#43a747"/>
      <stop offset="1" stop-color="#8cc63f"/>
    </linearGradient>
    <linearGradient id="nufaaBlue" x1="130" y1="80" x2="250" y2="250" gradientUnits="userSpaceOnUse">
      <stop offset="0" stop-color="#11264a"/>
      <stop offset="1" stop-color="#2e5a8f"/>
    </linearGradient>
    <linearGradient id="nufaaStar" x1="312" y1="150" x2="398" y2="44" gradientUnits="userSpaceOnUse">
      <stop offset="0" stop-color="#2f7d3a"/>
      <stop offset="1" stop-color="#8cc63f"/>
    </linearGradient>
  </defs>

  <!-- Blue diagonal of the N (drawn first, tucked under the green stems) -->
  <path d="M 124 68 L 182 68 L 256 252 L 198 252 Z" fill="url(#nufaaBlue)"/>

  <!-- Left green stem -->
  <path d="M 97 68 L 110 68 A 14 14 0 0 1 124 82 L 124 238 A 14 14 0 0 1 110 252 L 97 252 A 27 27 0 0 1 70 225 L 70 95 A 27 27 0 0 1 97 68 Z" fill="url(#nufaaGreenLeft)"/>

  <!-- Right green stem -->
  <path d="M 270 68 L 283 68 A 27 27 0 0 1 310 95 L 310 225 A 27 27 0 0 1 283 252 L 270 252 A 14 14 0 0 1 256 238 L 256 82 A 14 14 0 0 1 270 68 Z" fill="url(#nufaaGreenRight)"/>

  <!-- Four-pointed sparkle -->
  <path d="M 352 38 Q 360 86 404 92 Q 360 98 352 148 Q 344 98 306 92 Q 344 86 352 38 Z" fill="url(#nufaaStar)"/>
</svg>
